<svg width="200" height="32" viewBox="0 0 200 32" fill="none" xmlns="http://www.w3.org/2000/svg">
<path d="M32 16C32 7.16337 24.8366 0 16 0C7.16337 0 0 7.16337 0 16C0 23.9864 5.85189 30.6071 13.5037 31.8101V20.6218H9.44262V16H13.5037V12.4726C13.5037 8.4658 15.8915 6.24986 19.5455 6.24986C21.3002 6.24986 23.1272 6.56642 23.1272 6.56642V10.5008H21.1102C19.1204 10.5008 18.5054 11.7309 18.5054 12.9972V16H22.9463L22.2408 20.6218H18.5144V31.801C26.1481 30.6071 32 23.9864 32 16Z" fill="#F2F2F2"/>
<path d="M22.2318 20.622L22.9373 16.0001H18.4963V12.9973C18.4963 11.7311 19.1204 10.501 21.1012 10.501H23.1182V6.56656C23.1182 6.56656 21.2911 6.25 19.5365 6.25C15.8824 6.25 13.4946 8.46594 13.4946 12.4727V16.0001H9.43359V20.622H13.4946V31.8012C14.3087 31.9278 15.1408 32.0001 15.991 32.0001C16.8412 32.0001 17.6733 31.9368 18.4873 31.8012V20.622H22.2318Z" fill="black"/>
<path d="M72 32C80.8366 32 88 24.8366 88 16C88 7.16344 80.8366 0 72 0C63.1634 0 56 7.16344 56 16C56 24.8366 63.1634 32 72 32Z" fill="#F2F2F2"/>
<path d="M80.8467 10.5187C80.2949 10.772 79.6799 10.9257 79.083 11.0252C79.3633 10.98 79.7794 10.4644 79.9512 10.2564C80.2045 9.93985 80.4216 9.57806 80.5391 9.18914C80.5572 9.16201 80.5663 9.11679 80.5391 9.0987C80.503 9.08061 80.4758 9.08966 80.4487 9.10774C79.7794 9.46953 79.092 9.72278 78.3594 9.91272C78.2961 9.93081 78.2508 9.91272 78.2147 9.87654C78.1514 9.80418 78.0971 9.74087 78.0338 9.6866C77.7263 9.42431 77.3916 9.21628 77.0208 9.06252C76.5324 8.86354 75.9987 8.78214 75.4651 8.80927C74.9495 8.84545 74.443 8.99016 73.9908 9.22532C73.5295 9.46048 73.1225 9.79514 72.7969 10.1931C72.4623 10.6092 72.209 11.0976 72.0824 11.6131C71.9558 12.1106 71.9738 12.608 72.0462 13.1145C72.0552 13.1959 72.0462 13.214 71.9738 13.1959C69.0976 12.7708 66.7189 11.7397 64.7833 9.53284C64.7019 9.43335 64.6567 9.43335 64.5844 9.54188C63.7342 10.8081 64.1502 12.8522 65.2084 13.8471C65.3532 13.9828 65.4979 14.1185 65.6516 14.2361C65.5974 14.2451 64.8919 14.1728 64.2678 13.8471C64.1864 13.7929 64.1412 13.82 64.1321 13.9195C64.1231 14.0552 64.1321 14.1818 64.1593 14.3356C64.3221 15.6199 65.2084 16.8138 66.4295 17.2751C66.5742 17.3384 66.737 17.3926 66.8907 17.4198C66.6104 17.4831 66.33 17.5283 65.534 17.465C65.4346 17.4469 65.3984 17.4921 65.4346 17.5916C66.0315 19.2197 67.3249 19.7081 68.2927 19.9885C68.4193 20.0066 68.555 20.0066 68.6816 20.0427C68.6725 20.0518 68.6635 20.0518 68.6545 20.0699C68.3288 20.5583 67.2164 20.9201 66.7008 21.101C65.7602 21.4266 64.7291 21.5803 63.7342 21.4808C63.5714 21.4537 63.5442 21.4628 63.499 21.4808C63.4538 21.508 63.49 21.5441 63.5442 21.5894C63.7432 21.725 63.9512 21.8426 64.1593 21.9512C64.7924 22.2858 65.4526 22.5571 66.14 22.7471C69.7036 23.733 73.7195 23.0094 76.3876 20.3503C78.486 18.2609 79.2277 15.3847 79.2277 12.4995C79.2277 12.391 79.3633 12.3276 79.4357 12.2643C79.9784 11.8573 80.4216 11.3599 80.8286 10.8172C80.919 10.6906 80.919 10.582 80.919 10.5368C80.919 10.5278 80.919 10.5187 80.919 10.5187C80.91 10.4735 80.91 10.4916 80.8467 10.5187Z" fill="black"/>
<path d="M128 32C136.837 32 144 24.8366 144 16C144 7.16344 136.837 0 128 0C119.163 0 112 7.16344 112 16C112 24.8366 119.163 32 128 32Z" fill="#F2F2F2"/>
<path d="M136.311 14.1548C136.149 14.1729 135.986 14.1819 135.823 14.1819C134.023 14.1819 132.341 13.2775 131.346 11.767V19.9976C131.346 23.3623 128.624 26.0847 125.259 26.0847C121.894 26.0847 119.172 23.3623 119.172 19.9976C119.172 16.633 121.894 13.9106 125.259 13.9106C125.386 13.9106 125.512 13.9196 125.639 13.9287V16.9315C125.512 16.9134 125.395 16.8953 125.259 16.8953C123.54 16.8953 122.157 18.2882 122.157 19.9976C122.157 21.7161 123.549 23.1 125.259 23.1C126.977 23.1 128.488 21.7523 128.488 20.0338L128.515 6.05078H131.382C131.654 8.61946 133.725 10.6364 136.302 10.8173L136.311 14.1548Z" fill="black"/>
<path d="M184 32C192.837 32 200 24.8366 200 16C200 7.16344 192.837 0 184 0C175.163 0 168 7.16344 168 16C168 24.8366 175.163 32 184 32Z" fill="#F2F2F2"/>
<path d="M192.565 13.7117C192.565 11.5862 190.847 9.86768 188.721 9.86768H178.899C176.773 9.86768 175.055 11.5862 175.055 13.7117V18.2882C175.055 20.4137 176.773 22.1322 178.899 22.1322H188.721C190.847 22.1322 192.565 20.4137 192.565 18.2882V13.7117ZM186.786 16.3437L182.381 18.5234C182.209 18.6139 181.621 18.4872 181.621 18.2973V13.8202C181.621 13.6212 182.209 13.4946 182.39 13.5941L186.605 15.8914C186.786 15.9909 186.967 16.2442 186.786 16.3437Z" fill="black"/>
</svg>
