<svg width="15" height="14" viewBox="0 0 15 14" fill="none" xmlns="http://www.w3.org/2000/svg">
<path d="M6.86663 0.290446C7.05783 -0.0969656 7.61027 -0.0969644 7.80147 0.290447L9.6638 4.06395C9.73973 4.21779 9.88649 4.32442 10.0563 4.34909L14.2206 4.9542C14.6481 5.01633 14.8188 5.54172 14.5095 5.84328L11.4961 8.78054C11.3733 8.90029 11.3172 9.07282 11.3462 9.24191L12.0576 13.3894C12.1306 13.8152 11.6837 14.1399 11.3013 13.9389L7.5766 11.9807C7.42475 11.9009 7.24334 11.9009 7.09149 11.9807L3.36682 13.9389C2.98442 14.1399 2.53749 13.8152 2.61053 13.3894L3.32187 9.24191C3.35087 9.07282 3.29482 8.90029 3.17197 8.78054L0.158643 5.84328C-0.150723 5.54172 0.0199898 5.01633 0.447524 4.9542L4.61183 4.34909C4.78161 4.32442 4.92837 4.21779 5.0043 4.06395L6.86663 0.290446Z" fill="#FFDA18"/>
</svg>
