<svg width="16" height="16" viewBox="0 0 16 16" fill="none" xmlns="http://www.w3.org/2000/svg">
<path d="M7.55086 0.279086C7.73459 -0.0931726 8.26541 -0.093172 8.44914 0.279087L10.533 4.50151C10.606 4.64934 10.747 4.7518 10.9101 4.7755L15.5699 5.4526C15.9807 5.51229 16.1447 6.01714 15.8474 6.30691L12.4756 9.59361C12.3576 9.70867 12.3037 9.87445 12.3316 10.0369L13.1276 14.6778C13.1977 15.087 12.7683 15.399 12.4009 15.2058L8.23307 13.0147C8.08716 12.938 7.91284 12.938 7.76693 13.0147L3.59915 15.2058C3.23171 15.399 2.80226 15.087 2.87243 14.6778L3.66841 10.0369C3.69627 9.87445 3.64241 9.70867 3.52436 9.59361L0.152555 6.30691C-0.144712 6.01714 0.0193241 5.51229 0.430136 5.4526L5.08986 4.7755C5.25299 4.7518 5.39402 4.64934 5.46697 4.50151L7.55086 0.279086Z" fill="#FFC452"/>
</svg>
